<?xml version="1.0" standalone="no"?>
<!DOCTYPE svg PUBLIC "-//W3C//DTD SVG 20010904//EN"
 "http://www.w3.org/TR/2001/REC-SVG-20010904/DTD/svg10.dtd">
<svg version="1.0" xmlns="http://www.w3.org/2000/svg"
 width="2100.000000pt" height="2100.000000pt" viewBox="0 0 2100.000000 2100.000000"
 preserveAspectRatio="xMidYMid meet">
<metadata>
Created by potrace 1.14, written by Peter Selinger 2001-2017
</metadata>
<g transform="translate(0.000000,2100.000000) scale(0.100000,-0.100000)"
fill="#000000" stroke="none">
<path d="M0 10500 l0 -10500 10500 0 10500 0 0 10500 0 10500 -10500 0 -10500
0 0 -10500z m10684 9301 c79 -39 128 -87 290 -285 524 -641 917 -1320 1178
-2031 148 -403 254 -841 311 -1280 l13 -100 12 107 c73 624 273 1276 583 1898
179 358 374 682 569 946 106 142 199 196 345 197 104 2 181 -23 258 -83 108
-82 144 -169 189 -453 l22 -142 3 -2230 c4 -2424 5 -2364 -51 -2697 -191
-1123 -874 -2120 -1860 -2713 -412 -247 -897 -425 -1358 -496 -78 -12 -146
-25 -151 -28 -4 -4 -6 -1402 -5 -3106 l3 -3100 52 158 c192 575 548 1308 918
1889 336 528 710 996 1115 1397 718 712 1707 1365 2740 1809 266 114 664 262
675 250 8 -7 -113 -355 -190 -548 -506 -1274 -1288 -2420 -2190 -3210 -812
-712 -1852 -1315 -2960 -1716 l-200 -72 -5 -1298 -5 -1299 -23 -66 c-27 -81
-88 -176 -145 -225 -60 -52 -170 -102 -253 -114 -93 -14 -188 1 -279 44 -124
59 -202 149 -254 290 l-26 71 -3 1756 -2 1757 -38 7 c-104 19 -537 181 -817
305 -990 439 -1899 1048 -2586 1730 -690 686 -1300 1590 -1763 2613 -146 324
-351 866 -333 883 19 19 595 -195 932 -347 206 -92 615 -301 810 -414 1131
-653 1968 -1423 2667 -2455 429 -633 823 -1410 1069 -2110 l58 -165 0 2645 1
2645 -172 28 c-1618 264 -2911 1551 -3193 3179 -57 328 -55 247 -55 2651 0
1450 3 2249 10 2318 15 151 49 345 71 408 58 167 232 274 419 258 139 -12 223
-70 339 -232 488 -684 852 -1482 1021 -2240 39 -173 87 -456 96 -564 4 -44 10
-81 14 -81 4 0 10 35 14 78 10 107 62 410 98 571 207 923 639 1799 1283 2601
324 403 390 453 586 447 74 -3 96 -8 153 -36z"/>
</g>
</svg>
