<svg width="20" height="19" viewBox="0 0 20 19" fill="none" xmlns="http://www.w3.org/2000/svg">
<path d="M19.5 3.7C19.2 3 18.7 2.3 18.2 1.8C17.6 1.2 17 0.8 16.3 0.5C15.5 0.2 14.7 0 13.9 0C12.8 0 11.6 0.3 10.7 0.9C10.4 1 10.2 1.2 10 1.4C9.8 1.2 9.6 1 9.3 0.9C8.4 0.3 7.3 0 6.1 0C5.3 0 4.5 0.2 3.7 0.5C3 0.8 2.4 1.2 1.8 1.8C1.2 2.3 0.8 3 0.5 3.7C0.2 4.4 0 5.2 0 6.1C0 6.9 0.2 7.7 0.5 8.5C0.8 9.2 1.1 9.9 1.6 10.6C2.4 11.7 3.4 12.9 4.7 14.1C6.8 16.1 9 17.5 9.1 17.5L9.6 17.9C9.8 18.1 10.2 18.1 10.4 17.9L10.9 17.5C11 17.4 13.1 16.1 15.3 14.1C16.6 12.9 17.6 11.7 18.4 10.6C18.9 9.9 19.3 9.2 19.5 8.5C19.8 7.6 20 6.8 20 6.1C20 5.2 19.8 4.4 19.5 3.7Z" fill="#FF95BB"/>
</svg>
