<svg width="30" height="40" viewBox="0 0 30 40" fill="none" xmlns="http://www.w3.org/2000/svg">
<path d="M20.5407 8.31912L20.5405 8.31897C19.5765 7.6744 18.8407 6.83261 18.4425 5.97014C18.0484 5.11653 17.9561 4.16341 18.4393 3.39531L18.4394 3.39515C18.9255 2.62315 19.8205 2.31742 20.7477 2.34086C21.6816 2.36446 22.7306 2.7159 23.6923 3.36021L20.5407 8.31912ZM20.5407 8.31912C21.5053 8.96335 22.5549 9.31499 23.4886 9.33861C24.4155 9.36206 25.3093 9.05615 25.7942 8.28377C26.2749 7.51809 26.1838 6.56544 25.791 5.7115M20.5407 8.31912L25.791 5.7115M25.791 5.7115C25.394 4.84848 24.6592 4.00539 23.6927 3.3605L25.791 5.7115ZM22.0177 28.4372L22.0176 28.4371L22.0131 28.4473C21.8912 28.7226 21.7413 28.9949 21.5748 29.2606C20.2774 31.3201 18.006 32.4915 15.327 32.6789C12.6461 32.8665 9.58278 32.0625 6.78907 30.1926C3.99745 28.3227 2.03387 25.7629 1.10625 23.1537C0.178344 20.5436 0.295092 17.9184 1.59709 15.8558L1.5971 15.8558L1.59912 15.8526C1.761 15.5917 1.9423 15.3443 2.14134 15.1127L2.15324 15.0988L2.1602 15.0894C2.16232 15.0872 2.16813 15.0811 2.18001 15.0694L2.18466 15.0648C2.19448 15.0552 2.20932 15.0406 2.22334 15.0262C2.23951 15.0096 2.26 14.9877 2.28136 14.9619C2.43799 14.7786 2.60565 14.6058 2.78332 14.4444L2.79475 14.4341L2.79798 14.4307L2.8045 14.4255L2.81603 14.4166L2.83152 14.4046C2.84268 14.3958 2.8576 14.384 2.87355 14.3705L2.87362 14.3706L2.88121 14.3639C3.06835 14.1989 3.2637 14.0441 3.46643 13.9001L3.48401 13.8941L3.53993 13.8559C5.41004 12.5783 7.96063 12.1338 10.6783 12.6024L11.0077 12.6592L11.1861 12.3766L13.4399 8.80563L13.6029 8.5475L13.4477 8.28462C12.1317 6.05495 11.908 3.89125 12.8462 2.4032C13.6523 1.12477 15.2394 0.451392 17.2797 0.502705C19.313 0.553845 21.717 1.33088 23.99 2.85205C26.2607 4.37197 27.9308 6.32022 28.8061 8.22034C29.6856 10.1296 29.7339 11.9111 28.9225 13.1971L28.9221 13.1977C27.9928 14.6754 25.9976 15.3415 23.498 15.014L23.1806 14.9724L23.01 15.2432L20.7602 18.8142L20.5906 19.0833L20.7626 19.351C22.2882 21.7253 22.9318 24.3188 22.5605 26.6071L22.554 26.6468V26.6842C22.5057 26.9371 22.4466 27.1878 22.3769 27.4354C22.3629 27.4796 22.3543 27.519 22.3496 27.541C22.3443 27.5654 22.3426 27.5742 22.3411 27.5803C22.2722 27.8079 22.1861 28.0286 22.0857 28.2564L22.0856 28.2563L22.0803 28.2692C22.0641 28.309 22.0496 28.3504 22.0403 28.3769C22.0387 28.3814 22.0373 28.3854 22.0361 28.389C22.0251 28.42 22.0205 28.4313 22.0177 28.4372ZM2.79469 14.4334L2.7947 14.4334L2.79469 14.4334ZM0.98254 39.4026L0.670772 37.8819L4.53388 31.751C5.10015 32.183 5.69149 32.5793 6.30466 32.9377L2.43147 39.0837L0.98254 39.4026Z" fill="#FF95BB" stroke="#D16F92"/>
</svg>
