<svg width="20" height="18" viewBox="0 0 20 18" fill="none" xmlns="http://www.w3.org/2000/svg">
<path d="M1.52961 14.7568C1.52961 15.1155 1.90919 15.4054 2.37903 15.4054H17.6156C18.0855 15.4054 18.4651 15.1155 18.4651 14.7568V10.0338C18.4651 6.46216 14.6745 3.56757 9.99733 3.56757C5.32017 3.56757 1.52961 6.46216 1.52961 10.0338V14.7568ZM3.44082 10.0338C3.44082 7.26892 6.37665 5.02703 9.99733 5.02703C13.618 5.02703 16.5538 7.26892 16.5538 10.0338V13.9459H7.13052V10.4797C7.13052 10.3682 7.01107 10.277 6.86507 10.277H5.69711C5.55111 10.277 5.43166 10.3682 5.43166 10.4797V13.9459H3.44082V10.0338ZM2.16402 4.91554L3.21519 4.11284C3.29748 4.05 3.29748 3.94662 3.21519 3.88378L1.41281 2.50743C1.3729 2.47725 1.319 2.46032 1.26283 2.46032C1.20667 2.46032 1.15277 2.47725 1.11286 2.50743L0.0616898 3.31014C0.0221696 3.34061 0 3.38177 0 3.42466C0 3.46755 0.0221696 3.50871 0.0616898 3.53919L1.86407 4.91554C1.94636 4.97838 2.07908 4.97838 2.16402 4.91554ZM19.9383 3.31014L18.8871 2.50743C18.8472 2.47725 18.7933 2.46032 18.7371 2.46032C18.681 2.46032 18.6271 2.47725 18.5872 2.50743L16.7848 3.88378C16.7453 3.91426 16.7231 3.95542 16.7231 3.99831C16.7231 4.0412 16.7453 4.08236 16.7848 4.11284L17.836 4.91554C17.9182 4.97838 18.0536 4.97838 18.1359 4.91554L19.9383 3.53919C20.0206 3.47432 20.0206 3.37297 19.9383 3.31014ZM18.4916 16.7027H1.50306C1.03322 16.7027 0.653634 16.9926 0.653634 17.3514V17.8378C0.653634 17.927 0.749195 18 0.865991 18H19.1287C19.2455 18 19.341 17.927 19.341 17.8378V17.3514C19.341 16.9926 18.9614 16.7027 18.4916 16.7027ZM9.25408 2.27027H10.7406C10.8574 2.27027 10.9529 2.1973 10.9529 2.10811V0.162162C10.9529 0.072973 10.8574 0 10.7406 0H9.25408C9.13729 0 9.04173 0.072973 9.04173 0.162162V2.10811C9.04173 2.1973 9.13729 2.27027 9.25408 2.27027Z" fill="#FF95BB"/>
</svg>
