<svg width="18" height="18" viewBox="0 0 18 18" fill="none" xmlns="http://www.w3.org/2000/svg">
<path d="M1.37665 14.7568C1.37665 15.1155 1.71827 15.4054 2.14113 15.4054H15.8541C16.2769 15.4054 16.6186 15.1155 16.6186 14.7568V10.0338C16.6186 6.46216 13.207 3.56757 8.9976 3.56757C4.78816 3.56757 1.37665 6.46216 1.37665 10.0338V14.7568ZM3.09674 10.0338C3.09674 7.26892 5.73898 5.02703 8.9976 5.02703C12.2562 5.02703 14.8985 7.26892 14.8985 10.0338V13.9459H6.41746V10.4797C6.41746 10.3682 6.30996 10.277 6.17856 10.277H5.1274C4.996 10.277 4.8885 10.3682 4.8885 10.4797V13.9459H3.09674V10.0338ZM1.94762 4.91554L2.89367 4.11284C2.96773 4.05 2.96773 3.94662 2.89367 3.88378L1.27153 2.50743C1.23561 2.47725 1.1871 2.46032 1.13655 2.46032C1.086 2.46032 1.03749 2.47725 1.00157 2.50743L0.0555208 3.31014C0.0199527 3.34061 0 3.38177 0 3.42466C0 3.46755 0.0199527 3.50871 0.0555208 3.53919L1.67766 4.91554C1.75172 4.97838 1.87117 4.97838 1.94762 4.91554ZM17.9445 3.31014L16.9984 2.50743C16.9625 2.47725 16.914 2.46032 16.8634 2.46032C16.8129 2.46032 16.7644 2.47725 16.7284 2.50743L15.1063 3.88378C15.0707 3.91426 15.0508 3.95542 15.0508 3.99831C15.0508 4.0412 15.0707 4.08236 15.1063 4.11284L16.0524 4.91554C16.1264 4.97838 16.2483 4.97838 16.3223 4.91554L17.9445 3.53919C18.0185 3.47432 18.0185 3.37297 17.9445 3.31014V3.31014ZM16.6424 16.7027H1.35276C0.9299 16.7027 0.588271 16.9926 0.588271 17.3514V17.8378C0.588271 17.927 0.674275 18 0.779392 18H17.2158C17.3209 18 17.4069 17.927 17.4069 17.8378V17.3514C17.4069 16.9926 17.0653 16.7027 16.6424 16.7027ZM8.32868 2.27027H9.66652C9.77164 2.27027 9.85764 2.1973 9.85764 2.10811V0.162162C9.85764 0.072973 9.77164 0 9.66652 0H8.32868C8.22356 0 8.13755 0.072973 8.13755 0.162162V2.10811C8.13755 2.1973 8.22356 2.27027 8.32868 2.27027Z" fill="#FF95BB"/>
</svg>
